<svg width="226" height="80" viewBox="0 0 226 80" fill="none" xmlns="http://www.w3.org/2000/svg">
<path d="M62.1769 77.4114C62.0656 78.8847 60.8503 79.9974 59.4413 79.9974H21.0501C19.5709 79.9974 18.3701 78.7399 18.3701 77.1853C18.3701 76.9135 18.4064 76.6518 18.4766 76.4029L19.1158 75.242L37.987 40.9487C38.4566 40.1358 39.3064 39.5947 40.2772 39.5947C41.248 39.5947 42.0977 40.1358 42.5674 40.9487L61.441 75.2471L61.8646 76.0142C62.0728 76.3927 62.1939 76.822 62.1842 77.259C62.1842 77.3098 62.1818 77.3606 62.1769 77.4114Z" fill="white"/>
<path d="M32.8521 27.6455L38.045 17.9214C38.9867 16.1585 41.4028 16.1585 42.3446 17.9214L47.4673 27.5109L47.5399 27.6455L75.1434 77.9855L75.7632 79.1134C76.2473 79.6545 76.9325 79.9923 77.6951 79.9999C79.1791 80.0101 80.3944 78.6714 80.3944 77.1142V2.81205C80.3944 1.25996 79.1936 0 77.7144 0H2.67997C1.20078 0 0 1.25996 0 2.81205V77.1117C0 78.6689 1.21531 80.0101 2.69934 79.9974C3.46194 79.9923 4.14706 79.6519 4.63125 79.1109L32.8521 27.6455Z" fill="white"/>
<path d="M156.906 43.918H94.5278C94.1114 43.918 93.7749 44.2711 93.7749 44.708C93.7749 45.1449 94.1114 45.498 94.5278 45.498H159.428L156.906 43.918Z" fill="white"/>
<path d="M224.578 43.918H159.68L162.2 45.498H224.581C224.997 45.498 225.334 45.1449 225.334 44.708C225.331 44.2736 224.995 43.918 224.578 43.918Z" fill="white"/>
<path d="M117.807 32.3019H113.602L111.259 25.5473H100.953L98.6094 32.3019H94.5156L103.781 6.53613H108.543L117.807 32.3019ZM102.071 22.151H110.145L106.126 10.128L102.071 22.151Z" fill="white"/>
<path d="M132.168 6.53613C134.797 6.53613 136.887 7.22709 138.439 8.60644C139.988 9.98579 140.765 11.8478 140.765 14.1899C140.765 16.6107 139.99 18.4778 138.439 19.7911C136.889 21.107 134.797 21.7624 132.168 21.7624L131.795 21.9961H126.104V32.3019H122.16V6.53613H132.168ZM131.873 18.521C133.485 18.521 134.681 18.1755 135.463 17.4871C136.245 16.7987 136.635 15.7369 136.635 14.3042C136.635 12.8995 136.245 11.8452 135.463 11.1416C134.681 10.438 133.485 10.0874 131.873 10.0874H126.106V18.521H131.873ZM134.216 19.3796L142.215 32.3019H137.64L130.793 21.0206L134.216 19.3796Z" fill="white"/>
<path d="M156.91 32.6907C154.603 32.6907 152.606 32.1572 150.921 31.0903C149.234 30.0234 147.919 28.5069 146.977 26.5433C146.036 24.5797 145.563 22.2046 145.563 19.4179C145.563 16.6846 146.053 14.3298 147.033 12.3509C148.013 10.3721 149.401 8.8454 151.199 7.76326C152.998 6.68365 155.063 6.14258 157.395 6.14258C159.949 6.14258 162.014 6.63793 163.59 7.62608C165.166 8.61424 166.422 10.1511 167.366 12.2341L163.684 14.0681C163.212 12.638 162.437 11.5635 161.358 10.8471C160.278 10.1308 158.971 9.77259 157.433 9.77259C155.896 9.77259 154.55 10.1511 153.398 10.9055C152.245 11.66 151.345 12.7599 150.701 14.2053C150.054 15.6507 149.732 17.3882 149.732 19.4179C149.732 21.473 150.018 23.2232 150.587 24.6686C151.158 26.114 152.02 27.2139 153.172 27.9684C154.325 28.7228 155.746 29.1013 157.433 29.1013C158.351 29.1013 159.205 28.9769 160 28.7304C160.794 28.484 161.488 28.1182 162.084 27.6381C162.679 27.158 163.144 26.5458 163.478 25.8041C163.812 25.0623 163.98 24.1834 163.98 23.1698V22.4281H156.835V19.0318H167.514V32.3046H164.539L164.316 27.1123L165.059 27.5035C164.464 29.142 163.478 30.4197 162.101 31.3291C160.726 32.236 158.995 32.6907 156.91 32.6907Z" fill="white"/>
<path d="M184.071 6.14551C186.453 6.14551 188.511 6.67896 190.247 7.74586C191.982 8.81276 193.321 10.3369 194.265 12.3132C195.207 14.2921 195.679 16.6596 195.679 19.4183C195.679 22.177 195.207 24.547 194.265 26.5234C193.324 28.5022 191.982 30.0238 190.247 31.0907C188.511 32.1576 186.451 32.6911 184.071 32.6911C181.715 32.6911 179.667 32.1576 177.931 31.0907C176.196 30.0238 174.857 28.5022 173.913 26.5234C172.971 24.547 172.499 22.177 172.499 19.4183C172.499 16.6596 172.968 14.2921 173.913 12.3132C174.854 10.3344 176.196 8.81276 177.931 7.74586C179.667 6.67896 181.715 6.14551 184.071 6.14551ZM184.071 9.77551C182.534 9.77551 181.212 10.154 180.108 10.9085C179.004 11.6629 178.154 12.7578 177.559 14.1879C176.963 15.6206 176.665 17.3632 176.665 19.4183C176.665 21.4479 176.963 23.1855 177.559 24.6309C178.154 26.0763 179.004 27.1762 180.108 27.9306C181.212 28.6851 182.531 29.0636 184.071 29.0636C185.632 29.0636 186.966 28.6876 188.07 27.9306C189.174 27.1762 190.024 26.0763 190.619 24.6309C191.215 23.1855 191.513 21.4505 191.513 19.4183C191.513 17.3632 191.215 15.6181 190.619 14.1879C190.024 12.7578 189.174 11.6629 188.07 10.9085C186.966 10.154 185.635 9.77551 184.071 9.77551Z" fill="white"/>
<path d="M221.724 6.53613V32.3019H216.998L207.511 16.0621L205.128 11.4947H205.092L205.24 15.6709V32.3019H201.594V6.53613H206.281L215.732 22.7378L218.151 27.3839H218.187L218.037 23.1671V6.53613H221.724Z" fill="white"/>
<path d="M115.798 78.0372V52.2715H124.468C127.172 52.2715 129.179 52.8634 130.496 54.0471C131.81 55.2309 132.469 56.9176 132.469 59.1022C132.469 60.5857 132.084 61.8558 131.317 62.9075C130.547 63.9617 129.431 64.645 127.968 64.9575V64.9956C129.557 65.2572 130.815 65.938 131.745 67.0455C132.675 68.1531 133.139 69.5121 133.139 71.1252C133.139 73.2869 132.396 74.9762 130.907 76.2006C129.419 77.425 127.274 78.0346 124.47 78.0346H115.798V78.0372ZM117.66 64.1395H124.506C128.499 64.1395 130.496 62.4604 130.496 59.1022C130.496 55.744 128.499 54.0649 124.506 54.0649H117.66V64.1395ZM117.66 76.2438H124.841C126.949 76.2438 128.53 75.8018 129.583 74.9152C130.636 74.0312 131.164 72.756 131.164 71.0896C131.164 69.3978 130.636 68.1175 129.583 67.2437C128.528 66.3724 126.947 65.9355 124.841 65.9355H117.66V76.2438Z" fill="white"/>
<path d="M157.656 78.0362H155.683L152.594 69.9557H140.874L137.785 78.0362H135.812L145.634 52.2705H147.83L157.656 78.0362ZM141.545 68.1597H151.926L146.716 54.1833L141.545 68.1597Z" fill="white"/>
<path d="M181.096 52.2711V78.0368H178.789L165.767 57.8139L163.944 54.4964H163.907L164.019 57.6183V78.0368H162.232V52.2711H164.575L177.559 72.4534L179.418 75.8115L179.343 72.6871V52.2686H181.096V52.2711Z" fill="white"/>
<path d="M190.695 52.2705V78.0362H188.835V52.2705H190.695ZM206.617 52.2705L196.348 63.318L196.05 63.6305L189.724 70.385V67.7304L204.16 52.2705H206.617ZM196.498 62.0301L206.879 78.0362H204.61L195.011 63.2012L196.498 62.0301Z" fill="white"/>
</svg>
