<svg xmlns="http://www.w3.org/2000/svg" xmlns:xlink="http://www.w3.org/1999/xlink" id="&#xD1;&#xEB;&#xEE;&#xE9;_1" x="0px" y="0px" viewBox="0 0 3842.45 1333" style="enable-background:new 0 0 3842.45 1333;" xml:space="preserve"><style type="text/css">	.st0{fill:#FFFFFF;stroke:#000000;stroke-width:11.6704;stroke-miterlimit:10;}	.st1{fill:#0AE577;}	.st2{fill:#40C3FF;}	.st3{fill:#FFC826;}	.st4{fill:#FF3945;}	.st5{stroke:#000000;stroke-width:6.1758;stroke-miterlimit:10;}	.st6{stroke:#000000;stroke-width:1.7277;stroke-miterlimit:10;}</style><g id="&#xD1;&#xEB;&#xEE;&#xE9;_2">	<g>		<path class="st0" d="M3592.99,1266.03H259.42c-110.01,0-199.18-89.18-199.18-199.18V255.79c0-110.01,89.18-199.18,199.18-199.18   h3333.57c110.01,0,199.18,89.18,199.18,199.18v811.06C3792.18,1176.85,3703,1266.03,3592.99,1266.03z"></path>		<g>			<g id="XMLID_00000036239970534348652630000018098530284300471735_">				<path class="st1" d="M353.74,369.29l354.12,193.58l-99,96.1L318.32,374.41C327.18,365.58,341.29,362.52,353.74,369.29z"></path>				<path class="st2" d="M608.86,658.96L314.95,944.25c-3.33-4.76-5.34-10.59-5.34-17.11V395.47c0-8.49,3.4-15.81,8.71-21.06     L608.86,658.96z"></path>				<path class="st3" d="M840.14,635.15c20.72,11.3,20.72,41.01,0,52.34l-129.75,70.9l-101.53-99.43l99-96.1L840.14,635.15z"></path>				<path class="st4" d="M710.39,758.39L353.74,953.33c-14.17,7.75-30.54,2.66-38.78-9.08l293.91-285.29L710.39,758.39z"></path>			</g>			<g>				<path class="st5" d="M1384.27,767.3c-19.27,6.92-57.31,18.28-102.27,18.28c-50.4,0-91.9-12.85-124.51-43.97     c-28.66-27.67-46.44-72.14-46.44-124.01c0.49-99.31,68.68-171.94,180.34-171.94c38.54,0,68.68,8.4,83,15.32l-10.37,35.08     c-17.79-7.9-40.02-14.33-73.62-14.33c-81.03,0-133.89,50.4-133.89,133.89c0,84.49,50.89,134.39,128.46,134.39     c28.16,0,47.43-3.95,57.31-8.89V641.8h-67.69v-34.59h109.69V767.3z"></path>				<path class="st5" d="M1667.36,660.58c0,88.44-61.27,126.98-119.07,126.98c-64.72,0-114.63-47.43-114.63-123.02     c0-80.04,52.37-126.98,118.58-126.98C1620.92,537.55,1667.36,587.45,1667.36,660.58z M1477.64,663.05     c0,52.37,30.14,91.9,72.63,91.9c41.5,0,72.63-39.03,72.63-92.89c0-40.51-20.26-91.9-71.64-91.9     C1499.87,570.16,1477.64,617.59,1477.64,663.05z"></path>				<path class="st5" d="M1938.6,660.58c0,88.44-61.27,126.98-119.07,126.98c-64.72,0-114.63-47.43-114.63-123.02     c0-80.04,52.37-126.98,118.58-126.98C1892.16,537.55,1938.6,587.45,1938.6,660.58z M1748.88,663.05     c0,52.37,30.14,91.9,72.63,91.9c41.5,0,72.63-39.03,72.63-92.89c0-40.51-20.26-91.9-71.64-91.9     C1771.11,570.16,1748.88,617.59,1748.88,663.05z"></path>				<path class="st5" d="M2199.46,542.99c-0.99,17.29-1.98,36.56-1.98,65.71v138.83c0,54.84-10.87,88.44-34.09,109.19     c-23.22,21.74-56.82,28.66-86.96,28.66c-28.66,0-60.28-6.92-79.55-19.76l10.87-33.1c15.81,9.88,40.51,18.78,70.16,18.78     c44.47,0,77.08-23.22,77.08-83.5v-26.68h-0.99c-13.34,22.23-39.03,40.02-76.09,40.02c-59.29,0-101.78-50.4-101.78-116.6     c0-81.03,52.87-126.98,107.71-126.98c41.5,0,64.23,21.74,74.61,41.5h0.99l1.98-36.07H2199.46z M2154.5,637.36     c0-7.41-0.49-13.83-2.47-19.76c-7.9-25.2-29.15-45.95-60.77-45.95c-41.5,0-71.15,35.08-71.15,90.42     c0,46.94,23.72,85.97,70.65,85.97c26.68,0,50.89-16.8,60.28-44.47c2.47-7.41,3.46-15.81,3.46-23.22V637.36z"></path>				<path class="st5" d="M2269.61,431.33h43.48v350.79h-43.48V431.33z"></path>				<path class="st5" d="M2410.42,670.46c0.99,58.79,38.54,83,82.02,83c31.13,0,49.9-5.43,66.2-12.35l7.41,31.13     c-15.32,6.92-41.5,14.82-79.55,14.82c-73.62,0-117.59-48.42-117.59-120.56c0-72.13,42.49-128.95,112.16-128.95     c78.06,0,98.82,68.68,98.82,112.65c0,8.89-0.99,15.81-1.48,20.26H2410.42z M2537.89,639.33c0.49-27.67-11.36-70.65-60.28-70.65     c-43.97,0-63.24,40.51-66.7,70.65H2537.89z"></path>				<path class="st5" d="M2739.95,453.07c20.75-3.46,47.92-6.42,82.51-6.42c42.49,0,73.62,9.88,93.38,27.67     c18.28,15.81,29.15,40.02,29.15,69.66c0,30.14-8.89,53.85-25.69,71.15c-22.73,24.21-59.78,36.56-101.78,36.56     c-12.85,0-24.7-0.49-34.59-2.96v133.4h-42.98V453.07z M2782.93,613.64c9.39,2.47,21.25,3.46,35.57,3.46     c51.88,0,83.5-25.2,83.5-71.15c0-43.97-31.13-65.22-78.56-65.22c-18.78,0-33.1,1.48-40.51,3.46V613.64z"></path>				<path class="st5" d="M2998.84,431.33h43.48v350.79h-43.48V431.33z"></path>				<path class="st5" d="M3247.85,782.12l-3.46-30.14h-1.48c-13.34,18.77-39.03,35.57-73.12,35.57c-48.42,0-73.12-34.09-73.12-68.68     c0-57.81,51.38-89.43,143.78-88.93V625c0-19.76-5.43-55.34-54.35-55.34c-22.23,0-45.45,6.92-62.25,17.79l-9.88-28.66     c19.76-12.85,48.42-21.25,78.56-21.25c73.12,0,90.91,49.9,90.91,97.83v89.43c0,20.75,0.99,41.01,3.95,57.31H3247.85z      M3241.42,660.08c-47.43-0.99-101.29,7.41-101.29,53.85c0,28.16,18.77,41.5,41.01,41.5c31.13,0,50.89-19.76,57.81-40.02     c1.48-4.45,2.47-9.39,2.47-13.83V660.08z"></path>				<path class="st5" d="M3365.43,542.99l52.37,141.31c5.43,15.81,11.36,34.59,15.32,48.91h0.99c4.45-14.33,9.39-32.61,15.32-49.9     l47.43-140.32h45.95l-65.22,170.46c-31.13,82.02-52.37,124.01-82.02,149.71c-21.24,18.77-42.49,26.19-53.36,28.16l-10.87-36.56     c10.87-3.46,25.2-10.37,38.04-21.24c11.86-9.39,26.68-26.19,36.56-48.42c1.98-4.45,3.46-7.91,3.46-10.38     c0-2.47-0.99-5.93-2.96-11.36L3318,542.99H3365.43z"></path>			</g>		</g>	</g></g></svg>