<svg xmlns="http://www.w3.org/2000/svg" xmlns:xlink="http://www.w3.org/1999/xlink" id="&#xD1;&#xEB;&#xEE;&#xE9;_1" x="0px" y="0px" viewBox="0 0 3842.45 1333" style="enable-background:new 0 0 3842.45 1333;" xml:space="preserve"><style type="text/css">	.st0{fill:#FFFFFF;stroke:#000000;stroke-width:11.6704;stroke-miterlimit:10;}	.st1{fill:#0AE577;}	.st2{fill:#40C3FF;}	.st3{fill:#FFC826;}	.st4{fill:#FF3945;}	.st5{stroke:#000000;stroke-width:6.1758;stroke-miterlimit:10;}	.st6{stroke:#000000;stroke-width:1.7277;stroke-miterlimit:10;}</style><g id="&#xD1;&#xEB;&#xEE;&#xE9;_2">	<g>		<path class="st0" d="M3588.01,1271.21H254.44c-110.01,0-199.18-89.18-199.18-199.18V260.97c0-110.01,89.18-199.18,199.18-199.18   h3333.57c110.01,0,199.18,89.18,199.18,199.18v811.06C3787.19,1182.04,3698.02,1271.21,3588.01,1271.21z"></path>		<g>			<g>				<g>					<path class="st5" d="M1215.51,762.02l-34.59,104.74h-44.47l113.14-333.01h51.88l113.64,333.01h-45.95l-35.57-104.74H1215.51z       M1324.7,728.43l-32.61-95.85c-7.41-21.74-12.35-41.5-17.29-60.77h-0.99c-4.94,19.76-10.38,40.02-16.8,60.28l-32.61,96.34      H1324.7z"></path>					<path class="st5" d="M1461.06,705.7c0-30.63-0.99-55.34-1.98-78.06h39.03l1.98,41.01h0.99c17.79-29.15,45.95-46.44,84.98-46.44      c57.81,0,101.29,48.91,101.29,121.54c0,85.97-52.37,128.46-108.7,128.46c-31.62,0-59.29-13.83-73.62-37.55h-0.99v129.94h-42.98      V705.7z M1504.04,769.43c0,6.42,0.99,12.35,1.98,17.79c7.9,30.14,34.09,50.89,65.22,50.89c45.95,0,72.63-37.55,72.63-92.39      c0-47.92-25.2-88.93-71.15-88.93c-29.64,0-57.31,21.25-65.71,53.85c-1.48,5.43-2.96,11.86-2.96,17.79V769.43z"></path>					<path class="st5" d="M1742.17,705.7c0-30.63-0.99-55.34-1.98-78.06h39.03l1.98,41.01h0.99c17.79-29.15,45.95-46.44,84.98-46.44      c57.81,0,101.28,48.91,101.28,121.54c0,85.97-52.37,128.46-108.7,128.46c-31.62,0-59.29-13.83-73.62-37.55h-0.99v129.94h-42.98      V705.7z M1785.16,769.43c0,6.42,0.99,12.35,1.98,17.79c7.9,30.14,34.09,50.89,65.22,50.89c45.95,0,72.63-37.55,72.63-92.39      c0-47.92-25.2-88.93-71.15-88.93c-29.64,0-57.31,21.25-65.71,53.85c-1.48,5.43-2.96,11.86-2.96,17.79V769.43z"></path>					<path class="st5" d="M2123.58,814.4c19.27,11.86,47.43,21.74,77.08,21.74c43.97,0,69.66-23.22,69.66-56.82      c0-31.13-17.79-48.91-62.75-66.21c-54.35-19.27-87.95-47.43-87.95-94.37c0-51.88,42.98-90.41,107.71-90.41      c34.09,0,58.79,7.9,73.62,16.3l-11.86,35.08c-10.87-5.93-33.1-15.81-63.24-15.81c-45.45,0-62.75,27.17-62.75,49.9      c0,31.13,20.26,46.44,66.21,64.23c56.33,21.74,84.98,48.91,84.98,97.83c0,51.38-38.04,95.85-116.6,95.85      c-32.12,0-67.19-9.39-84.98-21.24L2123.58,814.4z"></path>					<path class="st5" d="M2422.49,558.96v68.68h62.25v33.1h-62.25v128.95c0,29.64,8.4,46.44,32.61,46.44      c11.36,0,19.76-1.48,25.2-2.96l1.98,32.61c-8.4,3.46-21.74,5.93-38.54,5.93c-20.26,0-36.56-6.42-46.94-18.28      c-12.35-12.85-16.8-34.09-16.8-62.25V660.74h-37.06v-33.1H2380v-57.31L2422.49,558.96z"></path>					<path class="st5" d="M2747.09,745.22c0,88.44-61.27,126.98-119.07,126.98c-64.72,0-114.63-47.43-114.63-123.02      c0-80.04,52.37-126.98,118.58-126.98C2700.65,622.2,2747.09,672.1,2747.09,745.22z M2557.37,747.69      c0,52.37,30.14,91.9,72.63,91.9c41.5,0,72.63-39.03,72.63-92.89c0-40.51-20.26-91.9-71.64-91.9      C2579.6,654.81,2557.37,702.24,2557.37,747.69z"></path>					<path class="st5" d="M2801.92,702.24c0-28.16-0.49-52.37-1.98-74.61h38.04l1.48,46.94h1.98      c10.87-32.12,37.06-52.37,66.21-52.37c4.94,0,8.4,0.49,12.35,1.48v41.01c-4.45-0.99-8.89-1.48-14.82-1.48      c-30.63,0-52.37,23.22-58.3,55.83c-0.99,5.93-1.98,12.85-1.98,20.26v127.47h-42.98V702.24z"></path>					<path class="st5" d="M2982.75,755.11c0.99,58.79,38.54,83,82.02,83c31.13,0,49.9-5.43,66.21-12.35l7.41,31.13      c-15.32,6.92-41.5,14.82-79.55,14.82c-73.62,0-117.59-48.42-117.59-120.55s42.49-128.95,112.16-128.95      c78.06,0,98.82,68.68,98.82,112.65c0,8.89-0.99,15.81-1.48,20.26H2982.75z M3110.22,723.98c0.49-27.67-11.36-70.65-60.28-70.65      c-43.97,0-63.24,40.51-66.7,70.65H3110.22z"></path>				</g>				<g>					<path class="st6" d="M830,793.12c-31.12,88.9-94.26,168.23-151.48,168.23c-23.02,0-31.46-22.8-79.78-22.8      c-48.33,0-68.16,22.8-91.18,22.8c-79.78,0-170.97-153.98-170.97-273.55c0-119.56,79.78-170.97,148.17-170.97      c36.81,0,76.48,22.8,113.98,22.8c37.5,0,65.77-22.8,102.58-22.8c38.41,0,80.47,16.18,109.88,51.63      c-38.53,21.88-64.29,62-64.29,107.94C746.91,729.52,781.33,774.88,830,793.12z"></path>					<path class="st6" d="M678.17,459.56c7.93-9.94,14.31-21.25,18.69-33.72c6.35-18.11,8.79-38.34,4.47-57.18      c-0.3-1.3-18.14,2.68-19.76,3.13c-9.76,2.72-19.25,6.4-28.31,10.94c-39.43,19.74-75.71,58.12-78.42,104.05      c-0.36,6.1-0.38,12.68,1.11,18.66c0.24,0.94,13.17-0.14,14.08-0.2C624.79,502.75,657.01,486.06,678.17,459.56z"></path>				</g>			</g>		</g>	</g></g></svg>